<svg xmlns="http://www.w3.org/2000/svg" viewBox="0 0 1920 1080">
  <defs>
    <!-- Enhanced radial gradient with more purple -->
    <radialGradient id="bgGradient" cx="50%" cy="50%" r="70%">
      <stop offset="0%" style="stop-color:#2a1757"/>
      <stop offset="100%" style="stop-color:#0a0a0f"/>
    </radialGradient>
    
    <!-- Brighter grid pattern -->
    <pattern id="grid" x="0" y="0" width="40" height="40" patternUnits="userSpaceOnUse">
      <path d="M 40 0 L 0 0 0 40" fill="none" stroke="#b866ff" stroke-width="0.5" opacity="0.15"/>
    </pattern>
    
    <!-- Enhanced glow effect -->
    <filter id="glow">
      <feGaussianBlur stdDeviation="5" result="coloredBlur"/>
      <feMerge>
        <feMergeNode in="coloredBlur"/>
        <feMergeNode in="SourceGraphic"/>
      </feMerge>
    </filter>

    <!-- Neon glow effect -->
    <filter id="neonGlow">
      <feFlood flood-color="#b866ff" result="flood"/>
      <feComposite operator="in" in="flood" in2="SourceGraphic"/>
      <feGaussianBlur stdDeviation="8"/>
      <feComponentTransfer>
        <feFuncA type="linear" slope="3"/>
      </feComponentTransfer>
      <feComposite operator="over" in2="SourceGraphic"/>
    </filter>
  </defs>

  <!-- Base background -->
  <rect width="100%" height="100%" fill="url(#bgGradient)"/>
  
  <!-- Grid overlay -->
  <rect width="100%" height="100%" fill="url(#grid)"/>

  <!-- Neon hexagon patterns -->
  <g opacity="0.4" filter="url(#neonGlow)">
    <path d="M300,200 L350,230 L350,290 L300,320 L250,290 L250,230 Z" fill="none" stroke="#b866ff" stroke-width="2"/>
    <path d="M1620,800 L1670,830 L1670,890 L1620,920 L1570,890 L1570,830 Z" fill="none" stroke="#b866ff" stroke-width="2"/>
  </g>

  <!-- Neon circuit lines -->
  <g opacity="0.6" filter="url(#neonGlow)">
    <path d="M0,300 Q480,280 960,540 T1920,700" fill="none" stroke="#b866ff" stroke-width="1"/>
    <path d="M0,600 Q480,580 960,840 T1920,1000" fill="none" stroke="#b866ff" stroke-width="1"/>
  </g>
  
  <!-- Abstract geometric shapes with neon effect -->
  <g opacity="0.3" filter="url(#neonGlow)">
    <path d="M0 300 L200 400 L100 600 Z" fill="#b866ff"/>
    <path d="M1920 700 L1720 600 L1820 400 Z" fill="#b866ff"/>
  </g>

  <!-- Bright accent lines -->
  <g opacity="0.8" filter="url(#neonGlow)">
    <line x1="200" y1="0" x2="400" y2="1080" stroke="#b866ff" stroke-width="1"/>
    <line x1="1720" y1="0" x2="1520" y2="1080" stroke="#b866ff" stroke-width="1"/>
  </g>

  <!-- Center pulse circle -->
  <circle cx="960" cy="540" r="200" fill="none" stroke="#b866ff" stroke-width="2" opacity="0.2">
    <animate attributeName="r" values="200;300;200" dur="4s" repeatCount="indefinite"/>
    <animate attributeName="opacity" values="0.2;0.1;0.2" dur="4s" repeatCount="indefinite"/>
  </circle>
</svg>
